<?xml version="1.0" encoding="iso-8859-1"?>
<!-- Generator: Adobe Illustrator 19.0.0, SVG Export Plug-In . SVG Version: 6.00 Build 0)  -->
<svg xmlns="http://www.w3.org/2000/svg" xmlns:xlink="http://www.w3.org/1999/xlink" version="1.1" id="Capa_1" x="0px" y="0px" viewBox="0 0 423.155 423.155" style="enable-background:new 0 0 423.155 423.155;" xml:space="preserve" width="512px" height="512px">
<g>
	<g>
		<g>
			<path d="M348.333,282.35c-0.011-0.25-0.023-0.5-0.037-0.75c-0.263-15.565-3.75-30.906-10.24-45.056     c52.736-56.832,80.896-130.56,80.896-217.088V4.096h-15.36c-86.528,0-160.256,28.16-217.088,80.896     c-14.15-6.49-29.491-9.977-45.056-10.24c-26.345-1.323-52.134,7.887-71.68,25.6c-19.762,17.652-31.421,42.635-32.256,69.12     l-1.024,15.36l75.776,3.584c-10.503,22.714-18.239,46.608-23.04,71.168c-4.608,23.04,16.896,47.104,23.552,53.76     s24.576,22.016,40.96,22.016h5.632c25.919-5.143,51.169-13.217,75.264-24.064l3.584,75.776l15.36-1.024     C308.378,383.579,350.802,337.152,348.333,282.35z M328.84,145.408c-0.085,13.577-5.404,26.598-14.848,36.352     c-9.642,9.677-22.692,15.192-36.352,15.36c-28.444-0.278-51.434-23.268-51.712-51.712c0.168-13.66,5.682-26.71,15.36-36.352     c9.754-9.444,22.775-14.763,36.352-14.848c27.993-0.284,50.916,22.178,51.2,50.171     C328.844,144.722,328.844,145.065,328.84,145.408z" fill="#FFFFFF"/>
			
				<rect x="-5.003" y="358.376" transform="matrix(0.7071 -0.7071 0.7071 0.7071 -249.7661 144.4848)" width="109.057" height="30.72" fill="#FFFFFF"/>
			
				<rect x="100.805" y="338.928" transform="matrix(-0.7071 -0.7071 0.7071 -0.7071 -65.2455 718.4149)" width="30.72" height="67.584" fill="#FFFFFF"/>
			<rect x="37.669" y="274.23" transform="matrix(0.7071 0.7071 -0.7071 0.7071 231.1641 51.8204)" width="30.72" height="61.44" fill="#FFFFFF"/>
			<polygon points="35.464,87.04 66.184,87.04 66.184,58.88 94.344,58.88 94.344,28.16 66.184,28.16 66.184,0 35.464,0      35.464,28.16 7.304,28.16 7.304,58.88 35.464,58.88    " fill="#FFFFFF"/>
			<polygon points="394.888,356.864 394.888,328.704 364.168,328.704 364.168,356.864 336.008,356.864 336.008,387.584      364.168,387.584 364.168,415.744 394.888,415.744 394.888,387.584 423.048,387.584 423.048,356.864    " fill="#FFFFFF"/>
		</g>
	</g>
</g>
<g>
</g>
<g>
</g>
<g>
</g>
<g>
</g>
<g>
</g>
<g>
</g>
<g>
</g>
<g>
</g>
<g>
</g>
<g>
</g>
<g>
</g>
<g>
</g>
<g>
</g>
<g>
</g>
<g>
</g>
</svg>
