<?xml version="1.0" encoding="iso-8859-1"?>
<!-- Generator: Adobe Illustrator 16.0.0, SVG Export Plug-In . SVG Version: 6.00 Build 0)  -->
<!DOCTYPE svg PUBLIC "-//W3C//DTD SVG 1.1//EN" "http://www.w3.org/Graphics/SVG/1.1/DTD/svg11.dtd">
<svg xmlns="http://www.w3.org/2000/svg" xmlns:xlink="http://www.w3.org/1999/xlink" version="1.1" id="Capa_1" x="0px" y="0px" width="512px" height="512px" viewBox="0 0 452.97 452.97" style="enable-background:new 0 0 452.97 452.97;" xml:space="preserve">
<g>
	<path d="M452.935,346.021c-0.267-4.339-2.115-8.405-5.153-11.443c-0.506-0.507-1.048-0.985-1.618-1.43   c-60.666-47.415-118.923-98.953-173.146-153.179C218.793,125.746,167.249,67.484,119.82,6.804   c-0.445-0.571-0.924-1.111-1.432-1.618c-3.037-3.039-7.102-4.888-11.441-5.153c-5.063-0.309-10.014,1.568-13.6,5.153l-88.16,88.16   c-3.586,3.588-5.462,8.538-5.152,13.602c0.264,4.338,2.109,8.397,5.151,11.441c0.507,0.505,1.046,0.984,1.618,1.432   c47.678,37.268,93.848,77.076,137.747,118.712c-14.328-0.235-30.774-1.987-47.696-6.811c-2.637-0.753-5.46,0.231-7.059,2.46   c-1.595,2.229-1.623,5.219-0.064,7.475l12.744,18.446l-26.115,8.663c-2.666,0.885-4.461,3.382-4.449,6.19   c0.013,2.81,1.828,5.293,4.503,6.153c25.358,8.169,51.282,11.536,77.05,10.005l7.552-0.449l-2.142,7.256   c-5.838,19.768-8.732,40.537-8.605,61.733c0.011,1.751,0.723,3.374,1.904,4.555c0.014,0.015,0.025,0.027,0.039,0.041   c2.539,2.511,6.631,2.502,9.158-0.024c0.389-0.391,0.717-0.814,0.986-1.267l15.77-21.842l13.773,17.701   c1.684,2.164,4.543,3.037,7.148,2.183c2.604-0.854,4.391-3.25,4.466-5.989c0.513-18.555,4.134-35.52,8.351-49.31   c42.595,44.723,83.271,91.819,121.283,140.461c0.446,0.573,0.925,1.112,1.431,1.62c3.039,3.039,7.104,4.888,11.442,5.152   c5.062,0.311,10.014-1.566,13.6-5.152l88.16-88.16C451.369,356.035,453.246,351.084,452.935,346.021z M185.939,229.16   c-44.976-43.723-92.467-85.586-141.633-124.846l60.008-60.009c39.258,49.163,81.122,96.654,124.848,141.629L185.939,229.16z    M348.656,408.661C309.417,359.51,267.553,312.02,223.81,267.03l43.224-43.224c44.979,43.73,92.475,85.598,141.629,124.849   L348.656,408.661z" fill="#FFFFFF"/>
</g>
<g>
</g>
<g>
</g>
<g>
</g>
<g>
</g>
<g>
</g>
<g>
</g>
<g>
</g>
<g>
</g>
<g>
</g>
<g>
</g>
<g>
</g>
<g>
</g>
<g>
</g>
<g>
</g>
<g>
</g>
</svg>
